<svg version="1.2" xmlns="http://www.w3.org/2000/svg" viewBox="0 0 1921 1076" width="1921" height="1076"><defs><linearGradient id="P" gradientUnits="userSpaceOnUse"/><linearGradient id="g1" x1="960.1" y1="0" x2="960.1" y2="1075.6" href="#P"><stop stop-color="#1d84aa"/><stop offset=".3" stop-color="#1d84aa"/><stop offset="1" stop-color="#76cbd3"/></linearGradient><linearGradient id="g2" x1="422.3" y1="0" x2="1497.9" y2="1075.6" href="#P"><stop stop-color="#76cbd3"/><stop offset=".1" stop-color="#76cbd3"/><stop offset=".6" stop-color="#c3d668"/><stop offset="1" stop-color="#839a3b"/></linearGradient><clipPath clipPathUnits="userSpaceOnUse" id="cp1"><path d="m0.08 0.02l1920-0.01c0 0 0.12 1073.22 0.08 1075.62-41.6-74.81-172.86-183.44-401.79-142.97-228.94 40.48-448.38 61.93-572.91-67.06-124.54-128.99-238.25-139.94-544.19-96.9-305.94 43.05-401.21-161.14-401.21-161.14z"/></clipPath></defs><style>.a{opacity:.1;fill:url(#g1)}.b{fill:url(#g2)}</style><path class="a" d="m0 0h1919.8c0 0 0.4 1075.7 0.4 1075.6-37.2-67.6-171.5-151.4-400.4-109.4-228.9 42-485.4 53-581-52.4-95.5-105.3-236.8-163.4-537.6-114.9-300.8 48.5-401.2-191.5-401.2-191.5z"/><path class="b" d="m0.1 0h1920c0 0 0.1 1073.2 0.1 1075.6-41.6-74.8-172.9-183.4-401.8-142.9-229 40.4-448.4 61.9-572.9-67.1-124.6-129-238.3-139.9-544.2-96.9-306 43.1-401.2-161.1-401.2-161.1z"/><g clip-path="url(#cp1)"></g></svg>